<svg xmlns="http://www.w3.org/2000/svg" stroke="#fe640b" stroke-width="2" style="fill:#eff1f5">
    <path d="M 241.64844 0.01953125 C 241.42344 0.050195282 241.1957 0.11796886 240.9707 0.23046875 C 225.77072 7.8304611 212.37186 19.030873 202.17188 32.630859 C 201.20463 33.931634 200.28331 35.261954 199.38281 36.603516 C 196.6831 36.840625 193.99426 37.26211 191.37109 38.03125 C 168.47112 44.531244 153.97109 67.530491 151.37109 90.230469 C 150.4845 98.07342 151.22042 106.09024 153.5918 113.60742 L 150.51172 110.99023 C 150.51172 110.99023 146.93339 114.10571 141.99023 118.60352 C 140.71416 118.58929 139.43877 118.59615 138.17188 118.63086 C 135.27188 118.73086 131.0707 118.43164 129.4707 121.43164 C 129.0167 122.30764 129.11964 123.44239 129.30664 124.15039 A 26.524 26.524 0 0 0 115.77148 132.23047 C 114.41547 133.82578 113.00232 136.50011 114.00586 138.43164 C 112.75952 139.39955 111.51106 140.3673 110.27148 141.33008 C 101.67149 148.03007 93.471868 155.43087 86.171875 163.63086 C 77.803297 173.0383 70.64814 183.85135 65.908203 195.57617 C 62.320509 185.87353 57.318275 176.701 51.070312 168.43164 C 46.570317 162.43165 40.971477 156.73086 33.771484 154.63086 C 26.571492 152.53086 17.471872 155.23048 14.671875 162.23047 C 13.771876 164.43047 13.771096 167.53008 15.871094 168.83008 C 17.671092 169.93008 19.970315 169.13086 22.070312 168.63086 C 29.570305 166.83086 37.570318 169.53008 43.570312 174.33008 C 49.570307 179.13007 53.771878 185.83048 57.171875 192.73047 C 58.514848 195.38844 59.735113 198.09818 60.863281 200.8457 C 52.818208 194.64893 43.869821 189.59887 34.371094 185.93164 C 27.371101 183.23164 19.571087 181.33008 12.371094 183.33008 C 5.1711009 185.33008 -1.1281237 192.43009 0.171875 199.83008 C 0.5718746 202.23008 2.2718774 204.83008 4.671875 204.83008 C 6.7718729 204.83008 8.3710952 202.93164 9.8710938 201.43164 C 15.271088 195.93165 23.571883 194.03164 31.171875 194.93164 C 38.771867 195.83164 45.87071 199.33008 52.470703 203.33008 C 55.585787 205.26835 58.621914 207.36087 61.568359 209.57422 C 60.643974 213.84705 60.050605 218.20293 59.871094 222.63086 C 59.474094 231.45885 60.751306 243.1414 69.654297 247.52539 A 1.876 1.876 0 0 1 69.972656 247.75977 A 23.51 23.51 0 0 0 72.171875 249.63086 C 74.871872 251.63086 77.970316 252.93086 81.070312 254.13086 C 84.070309 255.33086 87.170706 256.33086 89.970703 258.13086 C 92.270701 259.63086 94.370314 261.53086 96.070312 263.63086 C 99.470309 267.83086 101.47188 273.23086 101.67188 278.63086 C 101.67188 279.29546 101.6693 279.98563 101.64258 280.67578 C 97.32171 283.08152 96.122196 288.79387 96.771484 293.43164 C 97.171484 296.53164 98.370314 299.43047 99.570312 302.23047 C 100.70631 305.02747 101.69047 307.8241 102.85547 310.62109 C 101.74447 311.50409 96.9707 315.43125 93.970703 318.53125 C 91.170706 321.43125 89.170704 324.83125 89.970703 329.03125 C 91.570702 337.43124 101.67149 339.83125 108.77148 338.03125 A 20.878 20.878 0 0 0 117.16211 333.60742 C 118.06011 335.33342 120.06688 335.04225 121.17188 335.03125 C 123.37187 335.00925 125.47071 334.63047 127.4707 333.73047 C 131.4707 332.13047 134.97188 329.03125 136.67188 325.03125 C 138.87187 320.13125 138.3707 314.53164 137.4707 309.43164 C 136.6707 304.53165 135.07031 299.73046 133.07031 295.23047 C 130.77031 290.03047 127.47187 285.33086 123.67188 281.13086 L 123.5957 281.12695 C 125.65784 276.10848 125.41039 270.20264 124.77148 264.93164 C 124.10249 259.24265 122.59354 253.69257 120.18555 248.51758 C 120.14755 248.43458 120.13888 248.42364 120.17188 248.43164 C 122.87187 249.13164 125.37188 250.33008 127.67188 251.83008 C 132.17187 254.83008 135.87188 259.33165 137.67188 264.43164 C 137.68337 264.46146 137.82959 264.67237 137.88477 264.76367 C 134.5322 268.69367 135.34742 275.63943 137.67188 279.73047 C 139.17187 282.33047 141.07031 284.53047 143.07031 286.73047 C 145.00531 288.91747 146.79946 291.17672 148.68945 293.38672 C 147.75245 294.52472 144.77109 299.73047 142.87109 303.73047 C 141.0711 307.53046 140.2711 311.83164 142.87109 315.43164 C 147.77109 322.33163 157.7711 321.23046 163.87109 316.73047 C 166.39209 314.92947 168.34188 312.66301 169.79688 310.04102 C 170.63587 311.17801 172.47149 310.63047 173.77148 310.23047 C 175.97148 309.53047 177.87188 308.33008 179.67188 306.83008 C 183.07187 303.83008 185.27031 299.53125 185.57031 295.03125 C 185.87031 289.83126 183.4707 284.73007 180.9707 280.33008 C 178.63622 276.14746 175.72721 272.35148 172.44141 268.92578 C 175.99983 267.72319 179.56635 266.53671 183.11719 265.31836 C 184.53668 267.67664 186.82538 269.69159 189.77148 269.43164 C 192.39448 269.21864 193.61055 267.34687 194.06055 265.17188 C 195.00555 265.72487 197.77149 267.33008 200.77148 265.33008 A 4.054 4.054 0 0 0 202.23047 263.53906 C 203.08547 263.87106 203.81031 264.45647 206.07031 264.23047 C 209.14631 263.92247 211.15933 261.17776 210.86133 257.50977 C 213.47233 260.05276 216.2581 258.40386 217.87109 257.63086 C 220.23157 256.4988 222.54687 254.01002 223.13281 251.23633 C 231.07847 248.40169 239.03167 245.59189 246.9707 242.73047 C 275.27067 232.63048 303.67034 222.73085 332.57031 214.63086 C 334.57926 214.07624 336.59525 213.5543 338.60742 213.01562 C 338.64829 213.2597 338.69596 213.50703 338.73438 213.75 C 338.95337 215.132 339.99649 216.05078 341.39648 216.05078 C 344.04409 216.05078 345.42977 215.45549 347.93359 214.96094 C 348.74783 217.70042 349.5029 220.45165 350.17188 223.23047 C 351.47187 228.93046 352.37188 234.53008 353.17188 240.33008 C 354.57187 251.63007 354.97148 263.03165 354.27148 274.43164 C 353.97148 279.73164 353.47031 284.93086 352.57031 290.13086 C 352.37031 291.33086 352.7707 292.43164 353.9707 292.93164 C 355.0707 293.33164 356.3707 293.03164 356.9707 291.93164 C 369.47069 269.73166 374.27031 243.23083 370.07031 218.13086 C 369.65611 215.7147 369.12787 213.3177 368.54688 210.93359 C 369.85514 210.70637 371.16244 210.49967 372.4707 210.33008 C 373.8707 210.13008 374.47148 208.43047 374.27148 207.23047 C 374.09635 206.37232 373.90543 205.51857 373.70898 204.66602 C 376.4272 204.10961 379.14252 203.5408 381.87109 203.03125 C 382.97109 202.83125 383.77148 201.63125 383.77148 200.53125 C 384.07148 192.43126 382.17187 184.43085 378.67188 177.13086 C 378.07188 175.83086 376.27187 175.63047 375.17188 176.23047 C 372.57659 177.44409 369.96795 178.62462 367.35938 179.80469 C 367.1108 178.82276 366.9707 178.23047 366.9707 178.23047 C 366.6707 177.03047 365.2707 176.13125 363.9707 176.53125 C 362.72934 176.95284 361.49535 177.39376 360.26367 177.8457 C 358.52079 173.02814 356.42705 168.32102 353.9707 163.73047 C 347.97071 152.53048 340.17108 142.33046 330.87109 133.73047 C 325.5711 128.83047 319.77187 124.43086 313.67188 120.63086 C 312.67188 120.03086 311.27031 120.33047 310.57031 121.23047 C 309.77031 122.23047 309.97149 123.43008 310.77148 124.33008 C 317.07148 132.13007 322.37071 140.93009 326.9707 149.83008 C 332.3707 160.13007 336.97149 171.03048 340.27148 182.23047 C 340.62368 183.40447 340.94165 184.57916 341.25781 185.75391 C 341.06296 185.84732 340.86668 185.93774 340.67188 186.03125 C 338.17188 187.13125 336.74489 187.85963 335.08789 188.76562 C 333.74989 189.49662 333.86566 190.0993 334.34766 191.6543 C 334.56782 192.36469 334.74463 192.9986 334.92188 193.63477 C 334.27062 193.89764 333.62239 194.17005 332.9707 194.43164 C 329.37071 195.83164 325.77187 197.33047 322.17188 198.73047 C 320.47188 199.43047 318.87187 200.03047 317.17188 200.73047 C 315.17188 201.53047 313.37109 202.73125 311.37109 203.53125 C 304.2711 206.23125 297.07109 208.73008 289.87109 211.33008 C 268.83353 218.66702 247.51532 225.49594 226.29492 232.45117 C 225.44143 231.67296 224.43295 231.04079 223.27148 230.63086 C 221.55649 230.01786 219.5798 230.25892 218.4668 230.54492 A 16.855 16.855 0 0 0 217.07031 226.03125 C 216.14848 224.00322 214.51584 222.46285 212.23438 222.22461 C 211.62219 220.52369 211.00199 218.82614 210.37109 217.13086 C 203.9711 199.83088 196.07187 183.03006 187.17188 166.83008 A 693.881 693.881 0 0 0 180.97656 155.93359 C 181.50791 156.33382 182.03173 156.74419 182.57031 157.13086 C 190.05832 162.60989 198.55547 166.55982 207.66406 168.27539 C 211.56873 170.97664 215.8619 173.08962 220.37109 174.43164 C 239.07108 180.13163 260.07111 173.33124 273.87109 160.03125 C 278.37109 155.73125 282.17149 150.63124 285.77148 145.53125 C 289.27148 140.53125 292.07031 135.13163 292.57031 128.93164 C 292.67031 127.23164 290.47031 125.93164 289.07031 126.93164 C 275.87033 136.23163 260.27147 146.93007 243.27148 142.83008 C 241.57543 142.42626 239.91349 141.87013 238.30273 141.20508 C 238.53543 141.0474 238.7597 140.87615 238.99023 140.71484 C 240.87883 140.40573 242.97284 139.95098 244.17188 139.53125 C 252.67187 136.63125 258.77071 129.33007 262.4707 121.33008 C 264.4707 117.13008 265.7707 112.63125 266.4707 108.03125 C 267.0707 103.93125 267.27187 99.231637 264.17188 95.931641 C 264.01235 95.760298 263.82779 95.622226 263.65625 95.466797 C 263.78021 91.840348 263.54397 88.207725 262.87109 84.630859 C 262.41068 82.328812 261.22136 78.877958 260.09961 76.533203 C 260.11582 76.523925 260.13225 76.513167 260.14844 76.503906 C 261.37944 75.798907 262.87149 75.43125 264.27148 75.03125 C 267.07148 74.131251 270.0711 73.930469 272.87109 74.230469 C 278.27109 74.930468 283.87188 78.230474 286.17188 83.230469 C 286.97187 85.030467 289.47188 83.930077 289.67188 82.330078 C 290.02287 78.120082 289.03858 73.842152 287.14258 70.035156 C 289.56658 70.972155 292.05188 71.786862 295.67188 74.630859 C 299.60387 77.719856 303.17188 81.931255 303.67188 87.03125 C 303.97187 89.531248 306.97109 89.930857 307.87109 87.630859 C 311.78809 77.795869 311.68917 66.445678 307.57617 56.679688 C 309.84117 57.273687 314.27149 57.929299 319.27148 60.529297 C 323.27148 62.629295 327.3707 65.930473 328.9707 70.230469 C 329.7707 72.530466 333.17148 72.230857 333.27148 69.630859 C 333.77148 61.330868 331.67031 52.72929 327.57031 45.529297 C 325.57031 41.9293 323.07187 38.530856 320.17188 35.630859 C 318.37988 33.774861 316.34176 32.123467 314.63477 30.230469 C 317.01576 29.986469 320.97032 29.73008 326.07031 31.330078 C 328.97031 32.230077 330.9707 28.429685 328.9707 26.429688 C 319.67071 17.129697 308.07069 10.230465 295.4707 6.2304688 C 282.87072 2.2304728 269.37147 1.2304708 256.27148 3.2304688 C 251.18849 3.997468 246.24903 5.3935955 241.45703 7.1835938 C 242.76803 4.8045961 241.97149 6.2312468 243.77148 3.03125 C 244.64648 1.4562516 243.22344 -0.19511697 241.64844 0.01953125 z M 137.86328 183.74023 A 490.01 490.01 0 0 1 145.77148 191.63086 C 157.37147 203.53085 168.27032 216.23126 177.57031 230.03125 A 130.043 130.043 0 0 1 178.46289 231.46289 C 177.6103 232.34903 176.773 233.25952 175.96484 234.23828 C 175.04484 235.35228 175.43631 237.75086 176.07031 239.13086 C 176.52031 240.10886 177.46961 241.18061 178.22461 241.97461 C 179.13861 242.93461 180.0073 243.92625 181.0293 244.53125 C 181.2753 244.67725 181.23784 244.21572 181.08984 244.51172 C 180.78969 245.11 180.57135 245.72449 180.36523 246.3418 C 173.609 248.01365 166.64208 249.58645 160.50391 250.49414 C 159.58291 250.63014 158.66988 251.03886 158.67188 252.63086 C 158.67236 252.9118 158.66801 253.19713 158.66797 253.47852 C 157.86017 249.54295 156.16416 245.70092 154.37109 242.23047 C 151.5711 236.63047 147.77031 231.53164 143.07031 227.43164 C 138.28732 223.09964 132.36415 219.74378 126.03516 218.17578 L 126.01758 218.03711 C 125.85458 216.03211 125.77148 213.97164 125.77148 211.93164 C 125.77148 209.50711 125.90808 207.08621 126.1543 204.68359 L 137.86328 183.74023 z M 182.35547 204.02148 C 185.93754 209.17415 189.35388 214.44088 192.5625 219.82031 C 191.94414 220.02245 191.3629 220.29868 190.83008 220.66797 C 190.21123 219.35557 189.59565 218.04287 188.9707 216.73047 A 316.395 316.395 0 0 0 182.35547 204.02148 z " />
</svg>
